<?xml version="1.0" encoding="UTF-8" ?>
<!DOCTYPE svg PUBLIC "-//W3C//DTD SVG 1.1//EN" "http://www.w3.org/Graphics/SVG/1.1/DTD/svg11.dtd">
<svg width="600pt" height="600pt" viewBox="0 0 600 600" version="1.1" xmlns="http://www.w3.org/2000/svg">
<g id="#ffffffff">
<path fill="#ffffff" opacity="1.00" d=" M 337.40 61.22 C 372.03 61.29 406.66 61.25 441.30 61.24 C 441.10 175.99 441.45 290.76 441.12 405.51 C 439.50 402.43 439.19 398.95 438.28 395.66 C 436.77 391.99 434.68 388.59 433.06 384.98 C 431.12 380.46 426.34 377.98 424.62 373.33 C 423.33 369.89 421.03 367.02 419.23 363.88 C 418.47 358.40 419.05 352.15 422.71 347.73 C 424.92 345.15 425.15 341.60 426.63 338.65 C 428.29 335.28 430.51 331.92 430.06 327.97 C 429.77 321.06 430.52 314.09 429.76 307.21 C 428.51 302.90 428.09 297.80 424.30 294.82 C 421.23 292.42 420.46 287.95 416.74 286.31 C 413.77 284.73 411.65 282.08 409.28 279.78 C 406.78 277.03 402.79 276.99 399.68 275.32 C 396.85 273.85 394.00 272.42 390.88 271.68 C 390.63 270.39 390.32 269.13 389.99 267.87 C 389.90 267.51 389.71 266.79 389.62 266.44 C 372.24 266.41 354.87 266.40 337.49 266.39 C 337.33 278.29 337.87 290.21 337.18 302.09 C 323.32 302.81 309.42 301.94 295.56 302.51 C 295.30 318.25 295.64 334.00 295.43 349.74 C 295.97 349.70 297.04 349.62 297.57 349.58 C 304.78 341.99 315.01 338.27 324.94 335.75 C 329.05 335.31 333.19 335.23 337.32 335.31 C 337.46 346.45 337.49 357.61 337.30 368.76 C 327.72 368.09 317.13 368.05 309.17 374.25 C 303.66 378.33 299.60 384.05 297.28 390.47 C 289.71 391.17 282.10 390.53 274.52 390.83 C 269.28 390.80 264.01 390.49 258.78 391.06 C 258.65 390.54 258.38 389.49 258.25 388.97 C 258.22 361.15 258.35 333.32 258.19 305.50 C 258.36 292.96 258.22 280.43 258.26 267.89 C 258.33 267.51 258.48 266.76 258.56 266.38 C 284.87 266.32 311.18 266.39 337.49 266.39 C 337.44 198.00 337.62 129.60 337.40 61.22 Z" />
<path fill="#ffffff" opacity="1.00" d=" M 117.36 418.28 C 151.77 418.19 186.18 418.31 220.59 418.22 C 221.01 430.15 222.79 442.12 226.82 453.39 C 230.30 460.64 234.07 468.04 240.04 473.59 C 241.07 474.61 242.10 475.63 243.21 476.59 C 243.14 479.65 242.56 482.81 243.30 485.83 C 244.47 488.38 245.75 490.88 246.50 493.61 C 247.18 496.49 250.02 497.96 251.51 500.35 C 252.23 502.62 251.73 505.46 253.69 507.18 C 259.53 513.04 265.39 518.88 271.21 524.75 C 273.00 526.69 275.73 527.02 278.05 528.03 C 281.47 529.28 283.61 532.39 286.25 534.72 C 287.75 536.26 290.13 535.73 292.06 536.18 C 296.07 536.29 299.09 539.46 303.01 539.96 C 306.40 540.52 309.83 541.32 312.67 543.37 C 315.56 545.85 319.53 544.57 322.97 545.19 C 330.92 546.62 339.01 545.67 347.02 546.03 C 353.06 546.40 358.96 544.70 365.00 544.85 C 368.55 544.98 371.73 543.30 374.91 541.96 C 378.41 540.42 382.44 540.63 385.82 538.78 C 388.88 537.05 392.62 536.73 395.31 534.33 C 397.85 531.98 401.33 531.51 404.64 531.40 C 395.27 541.94 383.96 550.65 371.98 558.03 C 354.08 568.87 333.66 574.87 313.06 577.89 C 293.19 580.68 272.95 580.90 253.05 578.26 C 216.19 574.13 180.16 557.53 155.36 529.58 C 133.78 505.95 121.72 474.60 118.94 442.92 C 117.74 434.75 118.16 426.48 117.36 418.28 Z" />
<path fill="#ffffff" opacity="1.00" d=" M 254.72 419.97 C 254.95 419.61 255.41 418.89 255.64 418.53 C 257.95 418.59 260.27 418.59 262.58 418.60 C 266.65 418.62 270.71 418.60 274.78 418.61 C 281.16 418.79 287.57 418.25 293.92 418.82 C 295.00 420.95 295.54 423.30 296.46 425.51 C 300.08 433.89 307.61 439.99 316.22 442.72 C 322.43 444.46 328.90 444.99 335.32 444.36 C 335.50 443.21 335.69 442.05 335.88 440.90 C 335.93 441.67 336.01 443.19 336.06 443.95 C 334.61 445.61 334.26 447.85 333.61 449.89 C 330.56 460.70 324.22 470.72 315.15 477.44 L 314.60 477.26 C 310.41 476.02 306.05 475.50 301.71 475.10 C 297.08 473.71 292.57 471.91 288.26 469.74 C 285.47 468.22 282.70 466.62 280.18 464.69 C 278.27 463.23 276.41 461.71 274.63 460.11 C 270.40 456.20 266.66 451.76 263.60 446.88 C 258.65 438.75 255.61 429.43 254.72 419.97 Z" />
</g>
<g id="#000000ff">
<path fill="#000000" opacity="1.00" d=" M 337.49 266.39 C 354.87 266.40 372.24 266.41 389.62 266.44 C 389.71 266.79 389.90 267.51 389.99 267.87 C 389.76 279.40 390.60 291.00 389.60 302.49 C 372.22 302.15 354.83 302.51 337.46 302.30 L 337.18 302.09 C 337.87 290.21 337.33 278.29 337.49 266.39 Z" />
<path fill="#000000" opacity="1.00" d=" M 337.78 335.50 C 346.92 334.78 355.81 336.94 364.55 339.30 C 369.07 341.00 373.34 343.32 377.23 346.17 C 384.84 351.83 391.33 359.11 395.52 367.66 C 398.70 373.67 400.41 380.29 402.12 386.84 C 403.88 397.32 404.23 408.06 402.87 418.62 C 400.45 438.96 389.22 458.62 371.29 469.08 C 358.22 476.46 342.93 479.14 328.05 478.71 C 323.76 478.41 319.17 479.25 315.15 477.44 C 324.22 470.72 330.56 460.70 333.61 449.89 C 334.26 447.85 334.61 445.61 336.06 443.95 C 343.06 443.35 349.64 440.11 354.55 435.11 C 357.59 431.22 360.16 426.95 361.82 422.28 C 362.79 419.73 363.17 417.00 363.58 414.32 C 364.84 408.68 364.90 402.82 363.70 397.17 C 362.89 389.59 359.84 382.04 354.31 376.68 C 349.83 372.39 343.85 369.88 337.75 369.06 C 337.54 357.87 337.43 346.68 337.78 335.50 Z" />
</g>
<g id="#ddddddff">
<path fill="#dddddd" opacity="1.00" d=" M 389.99 267.87 C 390.32 269.13 390.63 270.39 390.88 271.68 C 390.60 276.44 390.65 281.22 390.76 285.99 C 390.73 291.21 390.63 296.44 391.28 301.63 C 397.48 305.95 402.31 313.23 401.12 321.07 C 400.92 327.31 397.10 332.61 392.74 336.75 C 387.90 340.42 382.12 342.58 377.23 346.17 C 373.34 343.32 369.07 341.00 364.55 339.30 C 363.27 338.64 362.01 337.97 360.70 337.39 C 360.64 336.83 360.50 335.72 360.43 335.17 C 368.50 335.06 377.49 334.52 383.64 328.59 C 387.55 326.18 387.45 321.13 386.79 317.14 C 385.49 312.97 382.56 309.11 378.36 307.55 C 373.21 304.94 367.32 305.49 361.82 304.39 C 371.08 303.88 380.42 304.15 389.60 302.49 C 390.60 291.00 389.76 279.40 389.99 267.87 Z" />
</g>
<g id="#f9f9f9ff">
<path fill="#f9f9f9" opacity="1.00" d=" M 390.88 271.68 C 394.00 272.42 396.85 273.85 399.68 275.32 C 402.79 276.99 406.78 277.03 409.28 279.78 C 411.65 282.08 413.77 284.73 416.74 286.31 C 420.46 287.95 421.23 292.42 424.30 294.82 C 428.09 297.80 428.51 302.90 429.76 307.21 C 430.52 314.09 429.77 321.06 430.06 327.97 C 430.51 331.92 428.29 335.28 426.63 338.65 C 425.15 341.60 424.92 345.15 422.71 347.73 C 419.05 352.15 418.47 358.40 419.23 363.88 C 421.03 367.02 423.33 369.89 424.62 373.33 C 426.34 377.98 431.12 380.46 433.06 384.98 C 434.68 388.59 436.77 391.99 438.28 395.66 C 439.19 398.95 439.50 402.43 441.12 405.51 C 441.54 417.01 441.12 428.55 440.72 440.05 C 438.65 458.97 435.47 478.10 427.43 495.51 C 421.95 508.65 414.33 520.95 404.64 531.40 C 401.33 531.51 397.85 531.98 395.31 534.33 C 392.62 536.73 388.88 537.05 385.82 538.78 C 382.44 540.63 378.41 540.42 374.91 541.96 C 371.73 543.30 368.55 544.98 365.00 544.85 C 358.96 544.70 353.06 546.40 347.02 546.03 C 339.01 545.67 330.92 546.62 322.97 545.19 C 319.53 544.57 315.56 545.85 312.67 543.37 C 309.83 541.32 306.40 540.52 303.01 539.96 C 299.09 539.46 296.07 536.29 292.06 536.18 C 290.13 535.73 287.75 536.26 286.25 534.72 C 283.61 532.39 281.47 529.28 278.05 528.03 C 275.73 527.02 273.00 526.69 271.21 524.75 C 265.39 518.88 259.53 513.04 253.69 507.18 C 251.73 505.46 252.23 502.62 251.51 500.35 C 250.02 497.96 247.18 496.49 246.50 493.61 C 245.75 490.88 244.47 488.38 243.30 485.83 C 242.56 482.81 243.14 479.65 243.21 476.59 C 248.54 480.63 254.55 483.82 261.01 485.64 C 264.69 491.72 267.32 498.52 272.25 503.77 C 276.25 507.80 279.99 512.30 285.25 514.73 C 291.40 519.01 298.09 522.55 305.23 524.84 C 312.36 528.01 320.04 529.94 327.84 530.33 C 334.17 530.68 340.46 532.91 346.81 531.69 C 350.26 531.11 353.78 530.92 357.19 530.13 C 363.00 528.47 369.28 529.35 374.87 526.80 C 379.94 524.49 385.54 523.32 390.18 520.13 C 394.95 516.92 400.25 514.44 404.39 510.35 C 409.92 506.25 414.68 501.10 417.95 495.01 C 420.35 490.15 424.51 486.36 426.21 481.13 C 429.48 474.61 430.47 467.35 432.42 460.41 C 435.14 451.85 433.51 442.79 433.98 433.99 C 434.76 425.18 431.52 416.81 429.67 408.34 C 424.69 396.19 418.67 384.09 409.34 374.65 C 405.66 370.17 402.08 365.39 400.07 359.90 C 400.20 352.16 405.44 345.92 410.56 340.64 C 418.72 329.01 419.81 311.74 410.83 300.23 C 406.86 292.55 398.43 288.92 390.76 285.99 C 390.65 281.22 390.60 276.44 390.88 271.68 Z" />
</g>
<g id="#edededff">
<path fill="#ededed" opacity="1.00" d=" M 390.76 285.99 C 398.43 288.92 406.86 292.55 410.83 300.23 C 419.81 311.74 418.72 329.01 410.56 340.64 C 405.44 345.92 400.20 352.16 400.07 359.90 C 402.08 365.39 405.66 370.17 409.34 374.65 C 418.67 384.09 424.69 396.19 429.67 408.34 C 431.52 416.81 434.76 425.18 433.98 433.99 C 433.51 442.79 435.14 451.85 432.42 460.41 C 430.47 467.35 429.48 474.61 426.21 481.13 C 424.51 486.36 420.35 490.15 417.95 495.01 C 414.68 501.10 409.92 506.25 404.39 510.35 C 400.25 514.44 394.95 516.92 390.18 520.13 C 385.54 523.32 379.94 524.49 374.87 526.80 C 369.28 529.35 363.00 528.47 357.19 530.13 C 353.78 530.92 350.26 531.11 346.81 531.69 C 340.46 532.91 334.17 530.68 327.84 530.33 C 320.04 529.94 312.36 528.01 305.23 524.84 C 298.09 522.55 291.40 519.01 285.25 514.73 C 279.99 512.30 276.25 507.80 272.25 503.77 C 267.32 498.52 264.69 491.72 261.01 485.64 L 262.08 485.89 C 266.43 487.00 270.86 487.81 275.36 487.96 C 275.91 488.00 277.02 488.07 277.58 488.10 C 278.78 491.66 281.20 494.60 283.78 497.25 C 293.81 507.00 306.77 513.48 320.38 516.48 C 325.35 517.53 330.44 517.80 335.46 518.52 C 345.71 519.77 355.95 517.91 365.96 515.86 C 376.73 514.07 386.11 507.97 395.00 501.98 C 401.87 496.51 407.34 489.37 411.92 481.93 C 418.06 469.96 422.47 456.63 421.82 443.03 C 421.55 436.99 422.57 430.83 420.97 424.92 C 419.59 418.37 417.61 411.97 415.23 405.72 C 412.91 400.05 409.34 395.01 405.98 389.93 C 405.11 388.44 403.49 387.72 402.12 386.84 C 400.41 380.29 398.70 373.67 395.52 367.66 C 391.33 359.11 384.84 351.83 377.23 346.17 C 382.12 342.58 387.90 340.42 392.74 336.75 C 397.10 332.61 400.92 327.31 401.12 321.07 C 402.31 313.23 397.48 305.95 391.28 301.63 C 390.63 296.44 390.73 291.21 390.76 285.99 Z" />
</g>
<g id="#2c2c2c2c">
<path fill="#2c2c2c" opacity="0.17" d=" M 295.56 302.51 C 309.42 301.94 323.32 302.81 337.18 302.09 C 336.97 304.70 336.81 307.34 336.67 309.96 C 332.40 310.46 328.25 308.97 323.99 309.09 C 315.04 309.35 305.96 308.35 297.19 310.62 C 296.58 307.93 296.05 305.22 295.56 302.51 Z" />
</g>
<g id="#36363636">
<path fill="#363636" opacity="0.21" d=" M 337.18 302.09 L 337.46 302.30 C 337.51 313.01 337.68 323.74 337.34 334.45 C 337.33 334.67 337.32 335.09 337.32 335.31 C 333.19 335.23 329.05 335.31 324.94 335.75 C 315.01 338.27 304.78 341.99 297.57 349.58 C 297.04 349.62 295.97 349.70 295.43 349.74 C 295.64 334.00 295.30 318.25 295.56 302.51 C 296.05 305.22 296.58 307.93 297.19 310.62 C 305.96 308.35 315.04 309.35 323.99 309.09 C 328.25 308.97 332.40 310.46 336.67 309.96 C 336.81 307.34 336.97 304.70 337.18 302.09 Z" />
</g>
<g id="#d0d0d0ff">
<path fill="#d0d0d0" opacity="1.00" d=" M 337.46 302.30 C 354.83 302.51 372.22 302.15 389.60 302.49 C 380.42 304.15 371.08 303.88 361.82 304.39 C 367.32 305.49 373.21 304.94 378.36 307.55 C 382.56 309.11 385.49 312.97 386.79 317.14 C 387.45 321.13 387.55 326.18 383.64 328.59 C 377.49 334.52 368.50 335.06 360.43 335.17 C 360.50 335.72 360.64 336.83 360.70 337.39 C 353.11 335.23 345.22 334.37 337.34 334.45 C 337.68 323.74 337.51 313.01 337.46 302.30 Z" />
</g>
<g id="#0f0f0f0f">
<path fill="#0f0f0f" opacity="0.06" d=" M 251.89 342.04 C 251.69 329.57 254.39 317.30 258.19 305.50 C 258.35 333.32 258.22 361.15 258.25 388.97 C 258.38 389.49 258.65 390.54 258.78 391.06 C 259.28 391.35 260.28 391.91 260.77 392.20 C 262.24 400.38 262.85 408.83 266.56 416.43 C 265.23 417.15 263.90 417.87 262.58 418.60 C 260.27 418.59 257.95 418.59 255.64 418.53 C 256.36 412.48 252.53 407.04 252.91 400.99 C 253.17 396.29 252.05 391.68 251.87 387.00 C 251.83 372.01 251.96 357.02 251.89 342.04 Z" />
</g>
<g id="#7b7b7bd2">
<path fill="#7b7b7b" opacity="0.82" d=" M 337.34 334.45 C 345.22 334.37 353.11 335.23 360.70 337.39 C 362.01 337.97 363.27 338.64 364.55 339.30 C 355.81 336.94 346.92 334.78 337.78 335.50 C 337.43 346.68 337.54 357.87 337.75 369.06 C 337.41 379.70 337.63 390.34 337.62 400.98 C 337.59 404.99 337.57 409.00 337.59 413.01 C 337.57 416.85 337.53 420.69 337.63 424.54 L 337.36 424.51 C 337.54 419.62 337.41 414.74 337.43 409.86 C 337.45 406.49 337.42 403.11 337.41 399.74 C 337.40 389.41 337.59 379.08 337.30 368.76 C 337.49 357.61 337.46 346.45 337.32 335.31 C 337.32 335.09 337.33 334.67 337.34 334.45 Z" />
</g>
<g id="#30303031">
<path fill="#303030" opacity="0.19" d=" M 309.17 374.25 C 317.13 368.05 327.72 368.09 337.30 368.76 C 337.59 379.08 337.40 389.41 337.41 399.74 C 329.12 401.11 322.06 406.15 314.49 409.50 C 308.80 413.13 302.20 415.57 295.41 415.68 C 290.59 414.67 285.83 412.11 283.21 407.80 C 279.83 403.24 278.66 397.57 277.77 392.09 C 279.86 392.35 282.32 391.48 284.18 392.74 C 286.59 398.48 289.18 405.24 295.69 407.38 C 302.14 408.01 308.59 405.59 313.71 401.74 C 316.47 399.15 319.18 396.50 321.77 393.74 C 323.47 392.00 323.58 388.91 321.71 387.24 C 317.61 382.84 313.01 378.91 309.17 374.25 Z" />
</g>
<g id="#cececeff">
<path fill="#cecece" opacity="1.00" d=" M 337.75 369.06 C 343.85 369.88 349.83 372.39 354.31 376.68 C 359.84 382.04 362.89 389.59 363.70 397.17 C 364.90 402.82 364.84 408.68 363.58 414.32 C 363.23 412.31 362.84 410.32 362.49 408.32 C 355.38 403.01 346.47 400.41 337.62 400.98 C 337.63 390.34 337.41 379.70 337.75 369.06 Z" />
</g>
<g id="#3a3a3a3a">
<path fill="#3a3a3a" opacity="0.23" d=" M 297.28 390.47 C 299.60 384.05 303.66 378.33 309.17 374.25 C 313.01 378.91 317.61 382.84 321.71 387.24 C 323.58 388.91 323.47 392.00 321.77 393.74 C 319.18 396.50 316.47 399.15 313.71 401.74 C 308.59 405.59 302.14 408.01 295.69 407.38 C 289.18 405.24 286.59 398.48 284.18 392.74 C 282.32 391.48 279.86 392.35 277.77 392.09 C 276.68 391.68 275.59 391.26 274.52 390.83 C 282.10 390.53 289.71 391.17 297.28 390.47 Z" />
</g>
<g id="#d9d9d9ff">
<path fill="#d9d9d9" opacity="1.00" d=" M 402.12 386.84 C 403.49 387.72 405.11 388.44 405.98 389.93 C 409.34 395.01 412.91 400.05 415.23 405.72 C 417.61 411.97 419.59 418.37 420.97 424.92 C 422.57 430.83 421.55 436.99 421.82 443.03 C 422.47 456.63 418.06 469.96 411.92 481.93 C 407.34 489.37 401.87 496.51 395.00 501.98 C 386.11 507.97 376.73 514.07 365.96 515.86 C 355.95 517.91 345.71 519.77 335.46 518.52 C 330.44 517.80 325.35 517.53 320.38 516.48 C 306.77 513.48 293.81 507.00 283.78 497.25 C 281.20 494.60 278.78 491.66 277.58 488.10 C 279.45 488.17 281.33 488.15 283.21 488.06 C 286.07 487.87 288.93 487.70 291.76 487.29 C 294.39 486.70 297.01 486.11 299.62 485.45 C 301.44 487.87 303.13 490.72 306.09 491.89 C 308.58 493.00 311.02 494.23 313.36 495.63 C 317.18 498.04 321.87 497.83 326.08 499.08 C 332.83 501.33 340.02 499.86 346.98 500.24 C 359.72 500.96 372.41 496.97 383.08 490.17 C 390.48 483.77 397.78 476.55 401.28 467.19 C 403.42 460.96 406.55 454.79 406.28 448.03 C 406.12 442.44 406.66 436.81 405.75 431.27 C 405.11 426.98 405.64 422.28 402.87 418.62 C 404.23 408.06 403.88 397.32 402.12 386.84 Z" />
<path fill="#d9d9d9" opacity="1.00" d=" M 337.62 400.98 C 346.47 400.41 355.38 403.01 362.49 408.32 C 362.84 410.32 363.23 412.31 363.58 414.32 C 363.17 417.00 362.79 419.73 361.82 422.28 C 355.87 415.37 346.57 412.10 337.59 413.01 C 337.57 409.00 337.59 404.99 337.62 400.98 Z" />
</g>
<g id="#28282828">
<path fill="#282828" opacity="0.16" d=" M 258.78 391.06 C 264.01 390.49 269.28 390.80 274.52 390.83 C 275.59 391.26 276.68 391.68 277.77 392.09 C 278.66 397.57 279.83 403.24 283.21 407.80 C 285.83 412.11 290.59 414.67 295.41 415.68 C 302.20 415.57 308.80 413.13 314.49 409.50 C 322.06 406.15 329.12 401.11 337.41 399.74 C 337.42 403.11 337.45 406.49 337.43 409.86 C 330.42 410.35 324.55 414.51 318.34 417.34 C 311.31 420.63 304.49 425.40 296.46 425.51 C 295.54 423.30 295.00 420.95 293.92 418.82 C 287.57 418.25 281.16 418.79 274.78 418.61 C 275.73 417.80 276.69 417.01 277.65 416.22 C 273.19 408.91 270.90 400.62 269.63 392.22 C 266.69 391.92 263.72 391.86 260.77 392.20 C 260.28 391.91 259.28 391.35 258.78 391.06 Z" />
</g>
<g id="#1c1c1c1c">
<path fill="#1c1c1c" opacity="0.11" d=" M 260.77 392.20 C 263.72 391.86 266.69 391.92 269.63 392.22 C 270.90 400.62 273.19 408.91 277.65 416.22 C 276.69 417.01 275.73 417.80 274.78 418.61 C 270.71 418.60 266.65 418.62 262.58 418.60 C 263.90 417.87 265.23 417.15 266.56 416.43 C 262.85 408.83 262.24 400.38 260.77 392.20 Z" />
</g>
<g id="#1a1a1a1a">
<path fill="#1a1a1a" opacity="0.10" d=" M 318.34 417.34 C 324.55 414.51 330.42 410.35 337.43 409.86 C 337.41 414.74 337.54 419.62 337.36 424.51 C 329.67 426.02 322.14 430.03 317.32 436.34 C 315.64 438.06 316.25 440.57 316.22 442.72 C 307.61 439.99 300.08 433.89 296.46 425.51 C 304.49 425.40 311.31 420.63 318.34 417.34 Z" />
</g>
<g id="#e8e8e8ff">
<path fill="#e8e8e8" opacity="1.00" d=" M 337.59 413.01 C 346.57 412.10 355.87 415.37 361.82 422.28 C 360.16 426.95 357.59 431.22 354.55 435.11 C 354.02 430.41 349.62 428.07 345.85 426.14 C 343.28 424.92 340.38 424.91 337.63 424.54 C 337.53 420.69 337.57 416.85 337.59 413.01 Z" />
</g>
<g id="#cbcbcbff">
<path fill="#cbcbcb" opacity="1.00" d=" M 402.87 418.62 C 405.64 422.28 405.11 426.98 405.75 431.27 C 406.66 436.81 406.12 442.44 406.28 448.03 C 406.55 454.79 403.42 460.96 401.28 467.19 C 397.78 476.55 390.48 483.77 383.08 490.17 C 372.41 496.97 359.72 500.96 346.98 500.24 C 340.02 499.86 332.83 501.33 326.08 499.08 C 321.87 497.83 317.18 498.04 313.36 495.63 C 311.02 494.23 308.58 493.00 306.09 491.89 C 303.13 490.72 301.44 487.87 299.62 485.45 C 304.79 483.60 310.20 481.75 314.27 477.89 C 310.04 477.18 305.75 476.59 301.71 475.10 C 306.05 475.50 310.41 476.02 314.60 477.26 C 314.56 477.59 314.46 478.27 314.42 478.60 C 321.19 480.32 327.12 484.44 333.99 485.92 C 338.31 486.18 342.66 486.20 346.99 485.92 C 355.74 483.48 364.77 479.88 370.40 472.34 C 371.23 471.45 371.17 470.19 371.29 469.08 C 389.22 458.62 400.45 438.96 402.87 418.62 Z" />
</g>
<g id="#0d0d0d0d">
<path fill="#0d0d0d" opacity="0.05" d=" M 317.32 436.34 C 322.14 430.03 329.67 426.02 337.36 424.51 C 337.34 430.01 336.89 435.49 335.88 440.90 C 335.69 442.05 335.50 443.21 335.32 444.36 C 328.90 444.99 322.43 444.46 316.22 442.72 C 316.25 440.57 315.64 438.06 317.32 436.34 Z" />
</g>
<g id="#f3f3f3ff">
<path fill="#f3f3f3" opacity="1.00" d=" M 337.36 424.51 L 337.63 424.54 C 340.38 424.91 343.28 424.92 345.85 426.14 C 349.62 428.07 354.02 430.41 354.55 435.11 C 349.64 440.11 343.06 443.35 336.06 443.95 C 336.01 443.19 335.93 441.67 335.88 440.90 C 336.89 435.49 337.34 430.01 337.36 424.51 Z" />
</g>
<g id="#13131313">
<path fill="#131313" opacity="0.07" d=" M 263.60 446.88 C 266.66 451.76 270.40 456.20 274.63 460.11 C 272.46 465.51 270.72 471.56 272.53 477.33 C 273.33 480.91 275.96 484.14 275.36 487.96 C 270.86 487.81 266.43 487.00 262.08 485.89 C 259.29 478.27 257.79 470.05 259.02 461.95 C 259.05 456.56 261.66 451.77 263.60 446.88 Z" />
</g>
<g id="#1f1f1f1f">
<path fill="#1f1f1f" opacity="0.12" d=" M 274.63 460.11 C 276.41 461.71 278.27 463.23 280.18 464.69 C 278.86 468.92 278.52 473.46 279.33 477.82 C 280.27 481.35 281.98 484.62 283.21 488.06 C 281.33 488.15 279.45 488.17 277.58 488.10 C 277.02 488.07 275.91 488.00 275.36 487.96 C 275.96 484.14 273.33 480.91 272.53 477.33 C 270.72 471.56 272.46 465.51 274.63 460.11 Z" />
</g>
<g id="#27272727">
<path fill="#272727" opacity="0.15" d=" M 280.18 464.69 C 282.70 466.62 285.47 468.22 288.26 469.74 C 286.69 475.77 287.36 482.57 291.76 487.29 C 288.93 487.70 286.07 487.87 283.21 488.06 C 281.98 484.62 280.27 481.35 279.33 477.82 C 278.52 473.46 278.86 468.92 280.18 464.69 Z" />
</g>
<g id="#30303030">
<path fill="#303030" opacity="0.19" d=" M 288.26 469.74 C 292.57 471.91 297.08 473.71 301.71 475.10 C 305.75 476.59 310.04 477.18 314.27 477.89 C 310.20 481.75 304.79 483.60 299.62 485.45 C 297.01 486.11 294.39 486.70 291.76 487.29 C 287.36 482.57 286.69 475.77 288.26 469.74 Z" />
</g>
<g id="#d1d1d1ff">
<path fill="#d1d1d1" opacity="1.00" d=" M 328.05 478.71 C 342.93 479.14 358.22 476.46 371.29 469.08 C 371.17 470.19 371.23 471.45 370.40 472.34 C 364.77 479.88 355.74 483.48 346.99 485.92 C 342.66 486.20 338.31 486.18 333.99 485.92 C 327.12 484.44 321.19 480.32 314.42 478.60 C 314.46 478.27 314.56 477.59 314.60 477.26 L 315.15 477.44 C 319.17 479.25 323.76 478.41 328.05 478.71 Z" />
</g>
</svg>
