<svg xmlns="http://www.w3.org/2000/svg" width="600pt" height="600pt" viewBox="0 0 600 600" version="1.1">
<g id="#ffffffff">
<path fill="#ffffff" opacity="1.00" d=" M 337.38 61.24 C 372.02 61.25 406.65 61.27 441.28 61.23 C 441.19 181.80 441.31 302.36 441.22 422.92 C 441.22 459.13 432.67 496.86 409.63 525.60 C 400.68 536.96 389.54 546.45 377.55 554.47 C 360.33 566.18 340.27 573.15 319.85 576.78 C 297.83 580.66 275.22 581.17 253.05 578.26 C 218.05 574.33 183.85 559.22 159.23 533.75 C 143.65 517.92 132.19 498.18 125.70 476.97 C 119.42 458.07 118.19 438.02 117.37 418.26 C 151.78 418.21 186.18 418.30 220.58 418.22 C 220.98 429.32 222.56 440.42 225.99 451.01 C 230.86 464.04 239.53 476.42 252.49 482.37 C 261.58 486.85 271.86 488.24 281.89 488.14 C 295.17 487.78 308.99 483.92 318.79 474.58 C 319.11 471.77 314.38 473.04 312.72 472.38 C 310.57 471.22 308.10 470.95 305.81 470.21 C 304.94 469.51 303.81 469.41 302.78 469.16 C 285.51 462.49 271.70 448.19 264.82 431.10 C 262.86 424.03 259.98 416.85 260.52 409.41 C 273.50 409.43 286.48 409.39 299.46 409.54 C 301.91 418.21 306.16 427.00 314.21 431.76 C 315.39 432.65 316.63 433.53 318.12 433.84 C 320.91 436.07 324.68 435.95 327.90 437.23 C 329.71 437.38 331.53 437.37 333.35 437.52 C 334.41 437.88 335.47 438.27 336.51 438.71 C 333.84 450.65 330.28 463.45 320.91 471.94 C 321.21 472.69 321.51 473.44 321.81 474.20 C 336.65 475.37 352.06 475.26 366.05 469.55 C 378.21 465.05 388.58 456.34 395.61 445.50 C 403.37 433.82 407.61 419.97 408.62 406.03 C 409.99 396.70 409.32 387.23 408.04 377.94 C 405.69 363.35 400.51 348.65 390.18 337.75 C 384.96 331.71 378.33 327.08 371.18 323.61 C 370.83 323.54 370.11 323.39 369.75 323.32 C 359.73 318.55 348.38 318.31 337.50 318.58 C 337.49 330.78 337.50 342.99 337.49 355.19 C 346.84 355.22 356.67 358.88 362.18 366.74 C 368.25 374.84 369.55 385.21 370.17 395.01 C 369.60 407.77 366.75 421.86 356.62 430.59 C 351.55 435.43 344.42 436.73 337.76 437.80 C 337.41 437.00 337.09 436.20 336.79 435.40 C 337.81 423.64 337.43 411.82 337.50 400.03 C 337.46 385.09 337.57 370.16 337.44 355.23 C 329.91 354.91 321.91 355.71 315.71 360.40 C 312.95 362.77 310.37 365.37 308.10 368.22 C 305.47 371.58 304.28 375.74 302.16 379.39 C 289.64 379.56 277.12 379.20 264.60 379.47 C 263.82 378.44 263.51 377.29 263.66 376.01 C 263.77 332.14 263.63 288.28 263.73 244.42 C 288.28 244.01 312.86 244.38 337.42 244.29 C 337.60 257.29 337.44 270.29 337.51 283.29 C 356.53 283.36 375.55 283.17 394.57 283.39 C 396.14 280.86 395.59 277.85 395.64 275.03 C 395.60 265.68 395.64 256.32 395.65 246.97 C 395.72 245.73 394.87 244.75 394.42 243.68 C 377.62 243.83 360.82 243.67 344.01 243.77 C 342.02 243.79 340.03 243.64 338.07 243.30 L 337.48 242.70 C 337.45 182.21 337.64 121.72 337.38 61.24 M 301.22 322.98 C 301.42 327.26 300.62 331.64 301.82 335.83 C 302.00 335.54 302.35 334.96 302.53 334.67 C 306.45 330.70 310.92 327.38 315.86 324.77 C 316.21 324.68 316.91 324.51 317.26 324.42 L 317.80 323.46 C 318.16 323.48 318.87 323.53 319.23 323.56 C 319.75 321.95 321.94 322.90 322.74 321.57 C 324.62 321.08 326.47 320.48 328.42 320.30 L 328.52 319.63 C 331.54 319.45 334.51 318.87 337.51 318.47 C 337.49 306.74 337.50 295.02 337.50 283.29 C 325.48 283.29 313.46 283.27 301.44 283.28 C 300.93 296.49 301.36 309.75 301.22 322.98 Z"/>
</g>
<g id="#000000ff">
<path fill="#000000" opacity="1.00" d=" M 338.07 243.30 C 340.03 243.64 342.02 243.79 344.01 243.77 C 360.82 243.67 377.62 243.83 394.42 243.68 C 394.87 244.75 395.72 245.73 395.65 246.97 C 395.64 256.32 395.60 265.68 395.64 275.03 C 395.59 277.85 396.14 280.86 394.57 283.39 C 375.55 283.17 356.53 283.36 337.51 283.29 C 337.44 270.29 337.60 257.29 337.42 244.29 C 337.58 244.04 337.91 243.55 338.07 243.30 Z"/>
<path fill="#000000" opacity="1.00" d=" M 337.50 318.58 C 348.38 318.31 359.73 318.55 369.75 323.32 C 370.11 323.39 370.83 323.54 371.18 323.61 C 378.33 327.08 384.96 331.71 390.18 337.75 C 400.51 348.65 405.69 363.35 408.04 377.94 C 409.32 387.23 409.99 396.70 408.62 406.03 C 407.61 419.97 403.37 433.82 395.61 445.50 C 388.58 456.34 378.21 465.05 366.05 469.55 C 352.06 475.26 336.65 475.37 321.81 474.20 C 321.51 473.44 321.21 472.69 320.91 471.94 C 330.28 463.45 333.84 450.65 336.51 438.71 C 335.47 438.27 334.41 437.88 333.35 437.52 C 334.67 437.11 335.89 436.46 336.79 435.40 C 337.09 436.20 337.41 437.00 337.76 437.80 C 344.42 436.73 351.55 435.43 356.62 430.59 C 366.75 421.86 369.60 407.77 370.17 395.01 C 369.55 385.21 368.25 374.84 362.18 366.74 C 356.67 358.88 346.84 355.22 337.49 355.19 C 337.50 342.99 337.49 330.78 337.50 318.58 Z"/>
</g>
</svg>
