<?xml version="1.0" encoding="UTF-8" ?>
<!DOCTYPE svg PUBLIC "-//W3C//DTD SVG 1.1//EN" "http://www.w3.org/Graphics/SVG/1.1/DTD/svg11.dtd">
<svg width="512pt" height="512pt" viewBox="0 0 512 512" version="1.1" xmlns="http://www.w3.org/2000/svg">
<g id="#e9ecf4ff">
<path fill="#e9ecf4" opacity="1.00" d=" M 162.33 0.00 L 164.56 0.00 C 172.55 0.59 179.04 8.02 178.46 16.03 C 178.44 29.33 178.45 42.63 178.45 55.93 C 199.30 55.94 220.16 55.93 241.01 55.93 C 241.04 42.27 240.98 28.60 241.04 14.94 C 240.90 7.24 247.50 0.43 255.14 0.00 L 255.61 0.00 C 256.17 18.65 255.29 37.33 256.02 55.98 C 261.01 56.39 266.02 56.28 271.02 55.99 C 291.86 55.89 312.70 55.91 333.54 55.98 C 343.54 56.33 353.56 56.36 363.56 56.01 C 384.35 55.85 405.16 55.96 425.95 55.95 C 437.49 55.77 448.64 62.95 453.33 73.46 C 455.49 78.00 456.16 83.07 456.09 88.04 C 456.02 108.18 456.18 128.32 456.01 148.45 C 455.63 158.45 455.67 168.47 456.03 178.47 C 456.10 199.30 456.12 220.14 456.02 240.98 C 455.66 250.99 455.70 261.01 456.02 271.02 C 456.11 291.85 456.12 312.69 456.01 333.53 C 455.59 343.52 455.69 353.55 456.01 363.55 C 456.17 384.02 456.03 404.50 456.08 424.98 C 456.19 431.53 454.35 438.15 450.46 443.47 C 444.95 451.30 435.53 456.14 425.95 456.05 C 405.15 456.04 384.35 456.15 363.56 456.00 C 353.56 455.65 343.54 455.68 333.54 456.01 C 312.70 456.10 291.86 456.10 271.02 456.01 C 266.02 455.74 261.01 455.59 256.02 455.98 C 255.38 465.31 255.92 474.67 255.78 484.02 C 255.92 493.34 255.48 502.68 255.99 512.00 L 254.67 512.00 C 247.23 511.23 240.89 504.61 241.04 497.04 C 240.98 483.38 241.04 469.72 241.01 456.07 C 220.16 456.07 199.30 456.06 178.45 456.07 C 178.43 469.71 178.48 483.34 178.43 496.98 C 178.56 504.62 172.19 511.34 164.65 512.00 L 162.37 512.00 C 155.11 511.41 148.78 505.18 148.52 497.83 C 148.39 483.91 148.52 469.99 148.47 456.07 C 129.66 456.07 110.85 456.06 92.05 456.07 C 87.60 456.05 83.08 456.31 78.74 455.20 C 68.87 452.82 60.51 445.08 57.42 435.41 C 55.68 430.49 55.90 425.20 55.92 420.06 C 55.93 401.21 55.92 382.37 55.92 363.53 C 42.06 363.49 28.19 363.59 14.32 363.49 C 6.95 363.27 0.61 356.99 0.00 349.69 L 0.00 347.35 C 0.65 339.80 7.41 333.43 15.04 333.56 C 28.67 333.51 42.29 333.56 55.92 333.55 C 55.93 312.69 55.92 291.84 55.92 270.98 C 42.26 270.95 28.59 271.03 14.93 270.96 C 7.44 271.07 0.88 264.88 0.00 257.53 L 0.00 254.64 C 0.75 247.19 7.42 240.88 14.99 241.04 C 28.63 240.98 42.28 241.04 55.92 241.01 C 55.92 220.16 55.93 199.31 55.92 178.45 C 42.29 178.44 28.65 178.49 15.02 178.44 C 7.41 178.55 0.67 172.20 0.00 164.68 L 0.00 162.33 C 0.60 155.07 6.85 148.79 14.18 148.52 C 28.09 148.40 42.01 148.52 55.92 148.47 C 55.95 127.31 55.87 106.15 55.96 84.99 C 56.04 70.01 69.02 56.58 84.00 56.01 C 105.48 55.82 126.98 55.99 148.47 55.93 C 148.52 42.01 148.39 28.08 148.52 14.16 C 148.78 6.83 155.09 0.60 162.33 0.00 M 127.23 147.58 C 140.80 147.58 154.38 147.51 167.96 147.53 C 175.59 147.44 183.04 154.12 182.72 161.97 C 183.70 170.19 175.99 177.61 167.97 177.47 C 154.43 177.50 140.88 177.51 127.33 177.55 C 127.31 178.22 127.27 179.55 127.25 180.22 C 125.66 181.35 125.98 183.34 125.95 185.04 C 126.08 203.90 125.82 222.76 126.08 241.62 C 137.71 241.50 149.35 241.56 160.98 241.51 C 167.94 241.10 175.09 246.08 176.47 253.04 C 177.01 256.62 176.88 260.46 175.10 263.70 C 172.46 268.31 167.35 271.55 161.98 271.47 C 150.04 271.45 138.10 271.60 126.17 271.46 C 125.79 291.50 125.95 311.57 126.08 331.62 C 137.74 331.50 149.40 331.57 161.06 331.51 C 166.69 331.20 172.21 334.36 175.05 339.19 C 177.39 343.61 177.37 349.26 175.09 353.71 C 172.46 358.31 167.36 361.55 162.00 361.47 C 150.12 361.49 138.25 361.52 126.38 361.52 C 128.83 374.98 141.24 385.87 155.00 386.00 C 188.65 386.06 222.29 385.95 255.93 386.05 C 289.29 386.15 322.65 386.08 356.01 386.09 C 369.78 386.32 382.78 375.90 385.38 362.36 C 373.31 360.88 361.09 362.14 348.97 361.47 C 345.02 360.70 341.36 358.15 339.30 354.67 C 336.73 350.69 336.79 345.49 338.12 341.09 C 339.81 337.24 343.18 334.40 346.91 332.61 C 359.81 331.94 372.77 332.43 385.69 332.44 C 385.88 330.95 386.09 329.46 386.12 327.97 C 386.11 311.64 386.10 295.30 386.12 278.97 C 386.10 276.41 385.80 273.88 385.61 271.34 C 381.48 270.92 377.01 272.09 373.10 270.73 C 363.72 270.61 354.35 270.67 344.97 270.62 C 339.85 270.98 334.84 267.95 332.27 263.61 C 329.71 259.65 329.81 254.47 331.11 250.10 C 332.80 246.25 336.17 243.40 339.91 241.62 C 355.10 240.90 370.34 241.52 385.56 241.38 C 386.71 229.63 385.85 217.79 386.11 206.00 C 385.94 196.78 386.55 187.53 385.61 178.34 C 382.37 178.27 379.12 178.36 375.88 178.28 C 375.44 178.14 374.54 177.85 374.09 177.71 C 364.39 177.64 354.68 177.66 344.98 177.62 C 338.15 178.08 331.68 172.62 330.46 165.99 C 330.19 163.04 330.03 159.92 331.13 157.11 C 332.70 153.63 335.59 150.70 339.08 149.12 C 341.22 148.08 343.66 148.35 345.97 148.27 C 358.95 148.37 371.93 148.29 384.91 148.39 C 382.17 135.31 369.17 125.68 355.95 125.91 C 322.62 125.92 289.28 125.85 255.95 125.95 C 222.30 126.05 188.64 125.94 154.99 126.00 C 142.36 126.16 130.45 135.35 127.23 147.58 Z" />
</g>
<g id="#cfd7e6ff">
<path fill="#cfd7e6" opacity="1.00" d=" M 255.61 0.00 L 257.44 0.00 C 265.71 0.82 271.94 8.83 271.02 17.03 C 270.99 30.02 270.98 43.01 271.02 55.99 C 266.02 56.28 261.01 56.39 256.02 55.98 C 255.29 37.33 256.17 18.65 255.61 0.00 Z" />
<path fill="#cfd7e6" opacity="1.00" d=" M 347.25 0.00 L 349.66 0.00 C 356.90 0.57 363.19 6.78 363.48 14.10 C 363.64 28.06 363.46 42.04 363.56 56.01 C 353.56 56.36 343.54 56.33 333.54 55.98 C 333.57 42.33 333.51 28.68 333.56 15.03 C 333.40 7.42 339.75 0.69 347.25 0.00 Z" />
<path fill="#cfd7e6" opacity="1.00" d=" M 456.01 148.45 C 469.94 148.53 483.89 148.38 497.82 148.52 C 505.17 148.74 511.37 155.04 512.00 162.28 L 512.00 164.67 C 511.34 172.21 504.61 178.58 496.98 178.44 C 483.33 178.51 469.68 178.44 456.03 178.47 C 455.67 168.47 455.63 158.45 456.01 148.45 Z" />
<path fill="#cfd7e6" opacity="1.00" d=" M 456.02 240.98 C 469.70 241.05 483.39 240.94 497.07 241.02 C 504.78 240.90 511.59 247.49 512.00 255.15 L 512.00 257.47 C 511.17 264.87 504.57 271.09 497.03 270.98 C 483.36 271.05 469.69 270.95 456.02 271.02 C 455.70 261.01 455.66 250.99 456.02 240.98 Z" />
<path fill="#cfd7e6" opacity="1.00" d=" M 456.01 333.53 C 467.69 333.54 479.36 333.54 491.03 333.53 C 495.31 333.56 499.88 333.10 503.79 335.20 C 508.41 337.48 511.40 342.26 512.00 347.31 L 512.00 349.73 C 511.37 356.96 505.16 363.22 497.84 363.48 C 483.90 363.62 469.95 363.47 456.01 363.55 C 455.69 353.55 455.59 343.52 456.01 333.53 Z" />
<path fill="#cfd7e6" opacity="1.00" d=" M 256.02 455.98 C 261.01 455.59 266.02 455.74 271.02 456.01 C 270.95 469.70 271.06 483.39 270.97 497.08 C 271.07 504.57 264.90 511.11 257.56 512.00 L 255.99 512.00 C 255.48 502.68 255.92 493.34 255.78 484.02 C 255.92 474.67 255.38 465.31 256.02 455.98 Z" />
<path fill="#cfd7e6" opacity="1.00" d=" M 333.54 456.01 C 343.54 455.68 353.56 455.65 363.56 456.00 C 363.51 469.35 363.54 482.70 363.55 496.05 C 364.08 504.00 357.65 511.38 349.71 512.00 L 347.35 512.00 C 339.81 511.36 333.42 504.63 333.56 497.00 C 333.51 483.34 333.57 469.67 333.54 456.01 Z" />
</g>
<g id="#404a80ff">
<path fill="#404a80" opacity="1.00" d=" M 127.23 147.58 C 130.45 135.35 142.36 126.16 154.99 126.00 C 188.64 125.94 222.30 126.05 255.95 125.95 C 256.05 212.65 256.03 299.35 255.93 386.05 C 222.29 385.95 188.65 386.06 155.00 386.00 C 141.24 385.87 128.83 374.98 126.38 361.52 C 138.25 361.52 150.12 361.49 162.00 361.47 C 167.36 361.55 172.46 358.31 175.09 353.71 C 177.37 349.26 177.39 343.61 175.05 339.19 C 172.21 334.36 166.69 331.20 161.06 331.51 C 149.40 331.57 137.74 331.50 126.08 331.62 C 125.95 311.57 125.79 291.50 126.17 271.46 C 138.10 271.60 150.04 271.45 161.98 271.47 C 167.35 271.55 172.46 268.31 175.10 263.70 C 176.88 260.46 177.01 256.62 176.47 253.04 C 175.09 246.08 167.94 241.10 160.98 241.51 C 149.35 241.56 137.71 241.50 126.08 241.62 C 125.82 222.76 126.08 203.90 125.95 185.04 C 125.98 183.34 125.66 181.35 127.25 180.22 C 127.27 179.55 127.31 178.22 127.33 177.55 C 140.88 177.51 154.43 177.50 167.97 177.47 C 175.99 177.61 183.70 170.19 182.72 161.97 C 183.04 154.12 175.59 147.44 167.96 147.53 C 154.38 147.51 140.80 147.58 127.23 147.58 Z" />
</g>
<g id="#283366ff">
<path fill="#283366" opacity="1.00" d=" M 255.95 125.95 C 289.28 125.85 322.62 125.92 355.95 125.91 C 369.17 125.68 382.17 135.31 384.91 148.39 C 371.93 148.29 358.95 148.37 345.97 148.27 C 343.66 148.35 341.22 148.08 339.08 149.12 C 335.59 150.70 332.70 153.63 331.13 157.11 C 330.03 159.92 330.19 163.04 330.46 165.99 C 331.68 172.62 338.15 178.08 344.98 177.62 C 354.68 177.66 364.39 177.64 374.09 177.71 C 374.54 177.85 375.44 178.14 375.88 178.28 C 379.12 178.36 382.37 178.27 385.61 178.34 C 386.55 187.53 385.94 196.78 386.11 206.00 C 385.85 217.79 386.71 229.63 385.56 241.38 C 370.34 241.52 355.10 240.90 339.91 241.62 C 336.17 243.40 332.80 246.25 331.11 250.10 C 329.81 254.47 329.71 259.65 332.27 263.61 C 334.84 267.95 339.85 270.98 344.97 270.62 C 354.35 270.67 363.72 270.61 373.10 270.73 C 377.01 272.09 381.48 270.92 385.61 271.34 C 385.80 273.88 386.10 276.41 386.12 278.97 C 386.10 295.30 386.11 311.64 386.12 327.97 C 386.09 329.46 385.88 330.95 385.69 332.44 C 372.77 332.43 359.81 331.94 346.91 332.61 C 343.18 334.40 339.81 337.24 338.12 341.09 C 336.79 345.49 336.73 350.69 339.30 354.67 C 341.36 358.15 345.02 360.70 348.97 361.47 C 361.09 362.14 373.31 360.88 385.38 362.36 C 382.78 375.90 369.78 386.32 356.01 386.09 C 322.65 386.08 289.29 386.15 255.93 386.05 C 256.03 299.35 256.05 212.65 255.95 125.95 Z" />
</g>
</svg>
